<?xml version="1.0" standalone="no"?><svg xmlns="http://www.w3.org/2000/svg" viewBox="0 0 1440 320"><path fill="#273036" fill-opacity="1" d="M0,128L30,112C60,96,120,64,180,80C240,96,300,160,360,186.7C420,213,480,203,540,181.3C600,160,660,128,720,117.3C780,107,840,117,900,117.3C960,117,1020,107,1080,133.3C1140,160,1200,224,1260,245.3C1320,267,1380,245,1410,234.7L1440,224L1440,320L1410,320C1380,320,1320,320,1260,320C1200,320,1140,320,1080,320C1020,320,960,320,900,320C840,320,780,320,720,320C660,320,600,320,540,320C480,320,420,320,360,320C300,320,240,320,180,320C120,320,60,320,30,320L0,320Z"></path></svg>